<?xml version="1.0" encoding="UTF-8"?>
<svg version="1.1" xmlns="http://www.w3.org/2000/svg" width="400" height="200">
<path d="M0 0 C17.49 0 34.98 0 53 0 C53 3.63 53 7.26 53 11 C39.47 11 25.94 11 12 11 C12 38.72 12 66.44 12 95 C38.4 95 64.8 95 92 95 C92 80.15 92 65.3 92 50 C95.63 50 99.26 50 103 50 C103 68.48 103 86.96 103 106 C69.01 106 35.02 106 0 106 C0 71.02 0 36.04 0 0 Z " fill="#292929" transform="translate(1,47)"/>
<path d="M0 0 C2.48756423 2.20327118 4.77932248 4.52949626 7 7 C3.69984002 11.13937592 0.82675589 14.58662205 -4 17 C-4.72703125 16.27683594 -4.72703125 16.27683594 -5.46875 15.5390625 C-10.93772538 10.38560493 -14.99188305 7.97699181 -22.55078125 8.01171875 C-27.36334853 8.33255657 -31.13566093 8.88359752 -35 12 C-36.57898053 15.15796107 -36.81928171 18.60670636 -36 22 C-31.95397962 27.58736148 -27.20573188 28.26693557 -20.8125 29.5 C-1.6020926 33.66824946 -1.6020926 33.66824946 4.8828125 42.11328125 C8.84969416 48.81259538 8.76321515 56.55575047 6.9375 63.9375 C4.88498991 70.20958897 1.43980227 74.99876597 -4.31640625 78.34765625 C-14.79273528 83.16297058 -27.79820762 83.94901466 -38.75390625 80.05078125 C-44.21035777 77.49811088 -50.39441969 73.91670042 -54 69 C-53.76180035 66.19970173 -53.11506686 65.11968899 -51.15234375 63.078125 C-50.42144531 62.47484375 -49.69054687 61.8715625 -48.9375 61.25 C-48.20402344 60.63640625 -47.47054687 60.0228125 -46.71484375 59.390625 C-45.86599609 58.70226562 -45.86599609 58.70226562 -45 58 C-44.48050781 58.39832031 -43.96101562 58.79664062 -43.42578125 59.20703125 C-34.45093778 66.02525799 -28.44714825 68.91245385 -17 68 C-13.33262415 66.75571177 -11.62389729 65.72788017 -9.125 62.8125 C-7.68432005 59.21080014 -6.90852802 55.79142898 -8 52 C-12.07396624 46.42244622 -16.78106007 45.73561187 -23.1875 44.5 C-33.24060593 42.31869002 -42.36575036 40.32114501 -48.8828125 31.7421875 C-52.42888144 26.21230376 -52.63250381 20.38433533 -52 14 C-50.59883123 7.80420683 -47.62289381 2.4099775 -42.21484375 -1.1875 C-29.47137436 -8.07860074 -12.2060247 -8.27996314 0 0 Z " fill="#292929" transform="translate(186,63)"/>
<path d="M0 0 C12.54 0 25.08 0 38 0 C38 12.54 38 25.08 38 38 C34.37 38 30.74 38 27 38 C26.67 32.39 26.34 26.78 26 21 C11.48 35.52 -3.04 50.04 -18 65 C-12.39 65.33 -6.78 65.66 -1 66 C-1 69.96 -1 73.92 -1 78 C-13.87 78 -26.74 78 -40 78 C-40 65.13 -40 52.26 -40 39 C-36.04 39 -32.08 39 -28 39 C-27.67 44.61 -27.34 50.22 -27 56 C-12.48 41.48 2.04 26.96 17 12 C11.39 11.67 5.78 11.34 0 11 C0 7.37 0 3.74 0 0 Z " fill="#292929" transform="translate(66,47)"/>
<path d="M0 0 C8.01786002 5.48076841 11.35038507 12.01482155 13.67578125 21.31640625 C14.03571153 25.63556964 13.92578125 29.98227171 13.92578125 34.31640625 C-0.26421875 34.31640625 -14.45421875 34.31640625 -29.07421875 34.31640625 C-27.61368271 42.61745142 -27.61368271 42.61745142 -23.07421875 48.31640625 C-18.36760367 51.20571659 -13.42573425 50.93709122 -8.07421875 50.31640625 C-3.70541395 48.7892925 -0.49349448 46.30109569 1.92578125 42.31640625 C5.75370993 43.87593275 8.28937989 46.15272461 10.92578125 49.31640625 C10.65891008 52.90113516 9.04523838 54.55569725 6.42578125 56.87890625 C-1.87953246 63.71685005 -10.56345831 64.18214174 -21.07421875 63.31640625 C-28.11460569 62.15001379 -33.51903433 58.80446068 -38.07421875 53.31640625 C-44.54320994 42.25651809 -45.62966516 30.52259838 -42.94921875 18.06640625 C-40.86301503 10.5482004 -36.68676678 4.56732999 -30.07421875 0.31640625 C-21.1353507 -4.31856237 -8.98745762 -4.85762776 0 0 Z M-26.38671875 13.50390625 C-28.69774784 16.92619732 -28.69774784 16.92619732 -29.07421875 24.31640625 C-19.83421875 24.31640625 -10.59421875 24.31640625 -1.07421875 24.31640625 C-1.53166273 17.17026199 -1.53166273 17.17026199 -4.94921875 12.37890625 C-5.46226562 11.81300781 -5.9753125 11.24710938 -6.50390625 10.6640625 C-12.74631195 5.30677403 -21.13473343 8.53581203 -26.38671875 13.50390625 Z " fill="#292929" transform="translate(385.07421875,81.68359375)"/>
<path d="M0 0 C5.60670536 4.14408657 8.37393609 8.49127534 9.796875 15.328125 C10.04231275 18.11384666 10.03173602 20.87323896 9.9921875 23.66796875 C9.9893576 24.43492569 9.98652771 25.20188263 9.98361206 25.99208069 C9.97250975 28.41676121 9.94742467 30.84105809 9.921875 33.265625 C9.9118323 34.9199165 9.90270872 36.57421385 9.89453125 38.22851562 C9.87260317 42.26186423 9.83814343 46.2949298 9.796875 50.328125 C11.776875 50.328125 13.756875 50.328125 15.796875 50.328125 C15.796875 54.288125 15.796875 58.248125 15.796875 62.328125 C3.62674586 62.65266178 3.62674586 62.65266178 -0.953125 58.890625 C-2.203125 57.328125 -2.203125 57.328125 -3.203125 54.328125 C-3.76 55.09125 -4.316875 55.854375 -4.890625 56.640625 C-8.13853645 60.4152248 -11.35102847 62.36629348 -16.203125 63.328125 C-23.18635797 63.84029441 -29.09463884 63.9433515 -35.203125 60.328125 C-39.50245652 56.60203768 -41.94777728 53.79252738 -42.5390625 48.0859375 C-42.64415893 38.31196991 -42.64415893 38.31196991 -40.578125 33.703125 C-34.49975491 27.62475491 -28.37035424 25.24704006 -19.92578125 25.1328125 C-18.03896274 25.14596106 -16.15219142 25.1695975 -14.265625 25.203125 C-12.8105957 25.21666016 -12.8105957 25.21666016 -11.32617188 25.23046875 C-8.95156093 25.25386393 -6.57747724 25.28664324 -4.203125 25.328125 C-4.60046655 23.38656968 -5.02175541 21.44990462 -5.453125 19.515625 C-5.80117188 17.89720703 -5.80117188 17.89720703 -6.15625 16.24609375 C-7.33263177 12.96714904 -8.19773638 11.9959198 -11.203125 10.328125 C-16.46045066 9.03859229 -20.20247668 9.23694479 -25.203125 11.328125 C-27.44512111 13.18987067 -29.25353939 15.14078505 -31.203125 17.328125 C-35.01996726 15.77311519 -37.39508232 13.29217005 -40.203125 10.328125 C-39.06430041 5.48812048 -36.26739523 3.49418488 -32.46875 0.66015625 C-23.6457858 -4.52713822 -9.04995276 -4.98098175 0 0 Z M-26.203125 37.328125 C-28.67654766 41.03825899 -28.58815986 42.93872762 -28.203125 47.328125 C-26.44297369 50.5131607 -25.70421584 51.16109472 -22.203125 52.328125 C-16.57104117 52.88596949 -11.94915896 52.71814926 -7.203125 49.328125 C-3.74997451 44.49371431 -3.86114302 40.02782459 -4.203125 34.328125 C-15.6644884 33.58529684 -15.6644884 33.58529684 -26.203125 37.328125 Z " fill="#292929" transform="translate(295.203125,81.671875)"/>
<path d="M0 0 C2.62176015 2.54893348 4.50669259 4.96908632 6.25 8.1875 C6.09375 10.234375 6.09375 10.234375 5.25 12.1875 C3.5078125 13.453125 3.5078125 13.453125 1.375 14.4375 C0.67632812 14.77265625 -0.02234375 15.1078125 -0.7421875 15.453125 C-2.75 16.1875 -2.75 16.1875 -5.75 16.1875 C-7.1226682 14.21428947 -8.45427617 12.21206848 -9.75 10.1875 C-14.00821391 7.34869073 -17.75338745 7.67584687 -22.75 8.1875 C-27.05406428 9.92744088 -28.66604269 12.11528659 -30.75 16.1875 C-31.34850181 20.15063074 -31.21388801 24.12121863 -31.1875 28.125 C-31.20748047 29.19685547 -31.22746094 30.26871094 -31.24804688 31.37304688 C-31.24420653 37.57520987 -31.07532108 41.5733174 -26.75 46.1875 C-22.73917327 48.94345421 -18.44429375 48.71750091 -13.75 48.1875 C-9.14486893 46.34544757 -7.26144595 43.37324325 -4.75 39.1875 C0.00481646 39.76384139 3.22048212 41.73818521 7.25 44.1875 C5.21841531 51.46734514 1.8102369 55.45716921 -4.75 59.1875 C-12.75673634 62.45555565 -22.17902616 62.50181593 -30.25 59.4375 C-36.49026235 56.74478405 -40.0820807 53.330488 -43 47.1875 C-43.50015625 46.15625 -44.0003125 45.125 -44.515625 44.0625 C-48.91491021 33.81606356 -48.04223434 19.90056291 -44.01171875 9.67578125 C-40.4978443 2.74594217 -35.45022705 -1.91242432 -27.9921875 -4.3984375 C-18.14818545 -6.21631941 -8.41794679 -5.5481922 0 0 Z " fill="#292929" transform="translate(244.75,83.8125)"/>
<path d="M0 0 C4.62 0 9.24 0 14 0 C14 25.74 14 51.48 14 78 C16.97 78 19.94 78 23 78 C23 81.96 23 85.92 23 90 C9.7835169 90.44549943 9.7835169 90.44549943 4 87 C-0.15476431 82.5682514 -0.14178778 78.1113628 -0.11352539 72.31567383 C-0.11374443 71.14458824 -0.11374443 71.14458824 -0.1139679 69.94984436 C-0.11327114 67.36887841 -0.10548982 64.7879846 -0.09765625 62.20703125 C-0.09579123 60.41769958 -0.09436772 58.6283674 -0.09336853 56.83903503 C-0.08954999 52.12902416 -0.07972533 47.41904411 -0.06866455 42.70904541 C-0.05843621 37.90303972 -0.05386786 33.09702906 -0.04882812 28.29101562 C-0.03810249 18.86066354 -0.02103399 9.43033433 0 0 Z " fill="#292929" transform="translate(317,54)"/>
</svg>
