<?xml version="1.0" encoding="UTF-8"?>
<svg version="1.1" xmlns="http://www.w3.org/2000/svg" width="400" height="200">
<path d="M0 0 C1.22807373 -0.0127597 2.45614746 -0.02551941 3.72143555 -0.03866577 C5.05777834 -0.04172286 6.39412325 -0.04395092 7.73046875 -0.04541016 C9.10522602 -0.0518395 10.47998192 -0.05856796 11.85473633 -0.06558228 C14.73294244 -0.07754337 17.61102861 -0.08126416 20.48925781 -0.08007812 C24.17492329 -0.07987464 27.8598202 -0.10721078 31.54530334 -0.14162254 C34.38321458 -0.1638697 37.22093993 -0.16791641 40.05892944 -0.16685867 C41.41770077 -0.16921663 42.77647707 -0.1780513 44.13516235 -0.19352341 C46.03531956 -0.21314124 47.93570288 -0.20483362 49.8359375 -0.1953125 C50.91641357 -0.19816254 51.99688965 -0.20101257 53.11010742 -0.20394897 C55.91796875 0.29052734 55.91796875 0.29052734 58.26574707 1.75915527 C60.72512887 5.52717895 60.47732262 8.86614663 60.43554688 13.27832031 C60.44255615 14.18610229 60.44956543 15.09388428 60.45678711 16.0291748 C60.47439469 19.03066587 60.46273247 22.03121414 60.44921875 25.03271484 C60.45191333 27.1201292 60.45579547 29.20754233 60.46081543 31.29495239 C60.46671462 35.67136578 60.45813554 40.04745268 60.43945312 44.42382812 C60.41669178 50.0284018 60.42976643 55.6322081 60.45374298 61.23675346 C60.46821356 65.54853063 60.46358865 69.86012664 60.45323181 74.17190933 C60.45056655 76.23793758 60.4538272 78.30398237 60.46315002 80.3699913 C60.47333298 83.26175063 60.45778851 86.15227752 60.43554688 89.04394531 C60.4436438 89.8950589 60.45174072 90.74617249 60.46008301 91.62307739 C60.38403097 96.97265954 59.49531778 100.06259925 55.91796875 104.29052734 C52.50032555 106.56895614 51.20340137 106.55987557 47.18066406 106.61279297 C45.41302704 106.6416156 45.41302704 106.6416156 43.60968018 106.67102051 C41.6972049 106.68377014 41.6972049 106.68377014 39.74609375 106.69677734 C37.77971954 106.71387756 37.77971954 106.71387756 35.77362061 106.73132324 C32.99620008 106.7523266 30.21889499 106.7640216 27.44140625 106.77099609 C23.89577382 106.78194253 20.35168671 106.82994703 16.80653763 106.88694 C13.41142129 106.93334132 10.01651054 106.93710216 6.62109375 106.94677734 C5.35420715 106.97147095 4.08732056 106.99616455 2.78204346 107.02160645 C1.59101013 107.01560425 0.39997681 107.00960205 -0.82714844 107.00341797 C-2.38909943 107.01435486 -2.38909943 107.01435486 -3.98260498 107.0255127 C-8.44553496 105.96719161 -11.33395439 103.97687428 -14.08203125 100.29052734 C-15.04168181 97.22331111 -15.01199059 94.34659126 -14.94018555 91.15161133 C-14.9476329 90.25168457 -14.95508026 89.35175781 -14.9627533 88.42456055 C-14.97822284 85.46083278 -14.94333122 82.50012097 -14.90625 79.53662109 C-14.9033456 77.47209367 -14.90296036 75.40756131 -14.90498352 73.34303284 C-14.90176918 69.02115747 -14.87482443 64.70030042 -14.82983398 60.37866211 C-14.77313014 54.84123097 -14.7649782 49.30506825 -14.773242 43.76739407 C-14.77604037 39.50621288 -14.75843138 35.24531447 -14.73410988 30.98420906 C-14.72390334 28.94249422 -14.71880242 26.90074723 -14.71890831 24.85900688 C-14.71493858 22.00544153 -14.68479215 19.15334401 -14.6472168 16.30004883 C-14.65060059 15.45783279 -14.65398438 14.61561676 -14.6574707 13.74787903 C-14.57934169 9.84152908 -14.36608506 7.75799267 -12.29670715 4.35243225 C-8.25142736 0.58620071 -5.50212487 0.03882176 0 0 Z M-2.08203125 12.29052734 C-2.70564392 15.95844274 -2.07351287 17.3040546 -0.0625 20.49755859 C0.8570326 21.7081699 1.78883557 22.9095254 2.73046875 24.10302734 C3.74246051 25.42113584 4.7514781 26.74153208 5.7578125 28.06396484 C6.27972168 28.74942383 6.80163086 29.43488281 7.33935547 30.14111328 C8.94462475 32.32682172 10.4428655 34.55681118 11.921875 36.82958984 C12.40358154 37.56459717 12.88528809 38.29960449 13.3815918 39.05688477 C14.30896731 40.48348059 15.22366181 41.91841577 16.12426758 43.36206055 C17.51470717 45.56131632 17.51470717 45.56131632 19.91796875 48.29052734 C22.39977986 48.82701456 22.39977986 48.82701456 24.91796875 48.29052734 C26.60508383 46.86715867 26.60508383 46.86715867 27.8515625 44.82568359 C28.3554248 44.09365723 28.85928711 43.36163086 29.37841797 42.60742188 C29.88646973 41.84284668 30.39452148 41.07827148 30.91796875 40.29052734 C31.92631657 38.87015947 32.93800754 37.45215871 33.953125 36.03662109 C34.9634657 34.60128547 35.97257804 33.16508441 36.98046875 31.72802734 C37.99199769 30.28909181 39.00371442 28.85028827 40.015625 27.41162109 C40.49660645 26.72052246 40.97758789 26.02942383 41.47314453 25.31738281 C42.43199984 23.97226338 43.42017965 22.64754887 44.43701172 21.34570312 C46.03317416 19.33290487 46.03317416 19.33290487 47.91796875 16.29052734 C47.52705021 13.49983843 47.52705021 13.49983843 45.91796875 11.29052734 C44.44991583 11.1922999 42.97719415 11.16254364 41.50585938 11.16113281 C40.0993512 11.15640457 40.0993512 11.15640457 38.66442871 11.15158081 C37.64465942 11.15360504 36.62489014 11.15562927 35.57421875 11.15771484 C34.53479126 11.15675812 33.49536377 11.15580139 32.42443848 11.15481567 C30.22192321 11.15413372 28.01940596 11.15598908 25.81689453 11.16015625 C22.43257156 11.16550427 19.04838131 11.16021176 15.6640625 11.15380859 C13.52994762 11.15446937 11.39583283 11.15575053 9.26171875 11.15771484 C8.24194946 11.15569061 7.22218018 11.15366638 6.17150879 11.15158081 C5.23383667 11.15473297 4.29616455 11.15788513 3.33007812 11.16113281 C2.08550842 11.1623262 2.08550842 11.1623262 0.8157959 11.1635437 C-1.09304649 11.08210183 -1.09304649 11.08210183 -2.08203125 12.29052734 Z M19.234375 59.81005859 C11.69781717 69.66297495 4.79715227 79.97175206 -2.08203125 90.29052734 C-1.75203125 91.94052734 -1.42203125 93.59052734 -1.08203125 95.29052734 C14.42796875 95.29052734 29.93796875 95.29052734 45.91796875 95.29052734 C46.57796875 93.97052734 47.23796875 92.65052734 47.91796875 91.29052734 C47.00203254 88.88585116 47.00203254 88.88585116 45.23046875 86.47802734 C44.57949219 85.51767578 43.92851563 84.55732422 43.2578125 83.56787109 C39.3270106 78.02162427 35.32077712 72.52903972 31.23339844 67.09716797 C30.32479325 65.84926924 29.45219013 64.57464056 28.61035156 63.28076172 C27.2167394 61.09998935 27.2167394 61.09998935 24.91796875 58.29052734 C21.03488289 57.84385346 21.03488289 57.84385346 19.234375 59.81005859 Z " fill="#292929" transform="translate(54.08203125,46.70947265625)"/>
<path d="M0 0 C5.61 0 11.22 0 17 0 C17 28.38 17 56.76 17 86 C12.05 86 7.1 86 2 86 C1.01 85.01 1.01 85.01 0 84 C-0.81726563 84.48597656 -1.63453125 84.97195312 -2.4765625 85.47265625 C-6.66297337 87.28738646 -9.87433393 87.49969826 -14.375 87.4375 C-15.13014893 87.43065186 -15.88529785 87.42380371 -16.66333008 87.41674805 C-22.26660878 87.25474746 -26.45300543 86.44158486 -31 83 C-32.03125 82.319375 -33.0625 81.63875 -34.125 80.9375 C-41.1364645 74.67315877 -44.41774286 65.1550644 -45 56 C-45.09525598 44.74618619 -42.90414046 35.12031941 -35.06640625 26.7578125 C-29.16418334 21.73701796 -22.03059535 18.89914194 -14.3125 18.75 C-13.52488281 18.72421875 -12.73726563 18.6984375 -11.92578125 18.671875 C-9 19 -9 19 0 22 C0 14.74 0 7.48 0 0 Z M-24 41 C-27.261303 47.39127836 -27.23866706 55.77320827 -25.2421875 62.5859375 C-23.53471752 66.20254714 -21.71750889 69.29195537 -18 71 C-13.46554624 72.10110063 -10.0680121 72.37578203 -5.625 70.8125 C-1.95454316 68.27813694 -0.40359783 66.21079349 1 62 C1.17529842 59.06878057 1.27713801 56.18268773 1.3125 53.25 C1.35600586 52.07050781 1.35600586 52.07050781 1.40039062 50.8671875 C1.46289893 45.07795708 0.44053997 41.69986195 -3 37 C-6.53147957 34.45223919 -10.2135913 34.46929717 -14.45703125 34.55078125 C-18.69788388 35.2999334 -21.42464457 37.62716235 -24 41 Z " fill="#292929" transform="translate(343,58)"/>
<path d="M0 0 C4.91180824 3.92326821 7.59466368 8.50646631 8.86328125 14.67578125 C8.94777561 16.2941361 8.98107125 17.91557935 8.97680664 19.53613281 C8.97673111 20.49682678 8.97665558 21.45752075 8.97657776 22.44732666 C8.97141647 23.47662292 8.96625519 24.50591919 8.9609375 25.56640625 C8.95952255 26.62615662 8.9581076 27.68590698 8.95664978 28.777771 C8.95105507 32.16046987 8.9385035 35.5431024 8.92578125 38.92578125 C8.92076557 41.22005113 8.91620278 43.51432204 8.91210938 45.80859375 C8.90108736 51.43101512 8.88382632 57.05338694 8.86328125 62.67578125 C3.91328125 62.67578125 -1.03671875 62.67578125 -6.13671875 62.67578125 C-6.63171875 59.70578125 -6.63171875 59.70578125 -7.13671875 56.67578125 C-7.95076172 57.30806641 -7.95076172 57.30806641 -8.78125 57.953125 C-9.49667969 58.50097656 -10.21210938 59.04882812 -10.94921875 59.61328125 C-11.65691406 60.15855469 -12.36460937 60.70382813 -13.09375 61.265625 C-17.27749177 64.15344676 -21.56034986 63.89255189 -26.44921875 63.92578125 C-27.19623047 63.94640625 -27.94324219 63.96703125 -28.71289062 63.98828125 C-34.99522681 64.03240653 -39.03212106 62.53565828 -43.82421875 58.30078125 C-48.92572052 52.50988735 -49.68211195 48.4570149 -49.484375 40.83984375 C-48.84937725 35.06065075 -46.58453913 32.19422701 -42.57421875 27.98828125 C-33.43889139 21.10859027 -21.0994135 20.26772372 -10.13671875 18.67578125 C-10.67781966 15.62828875 -10.67781966 15.62828875 -12.69921875 13.42578125 C-18.17113776 11.74211386 -24.02455556 12.11969965 -29.13671875 14.67578125 C-30.57595074 17.18573621 -30.57595074 17.18573621 -31.13671875 19.67578125 C-36.47005208 18.34244792 -41.80338542 17.00911458 -47.13671875 15.67578125 C-46.14416908 8.72793358 -42.68848396 4.65451118 -37.4296875 0.2578125 C-27.17225195 -6.8192938 -10.49070023 -6.50154914 0 0 Z M-18.51171875 34.98828125 C-19.50171875 35.16520508 -19.50171875 35.16520508 -20.51171875 35.34570312 C-24.58580891 36.13698558 -27.83517269 37.12233832 -31.13671875 39.67578125 C-32.29697274 43.1299944 -32.29697274 43.1299944 -32.13671875 46.67578125 C-30.49734549 49.03647874 -29.52190622 49.60217855 -26.68359375 50.14453125 C-20.87491505 50.20943269 -16.94445037 49.87815099 -12.4375 46.02734375 C-8.92863385 42.38149484 -8.70616773 38.61100572 -8.13671875 33.67578125 C-11.70041648 33.67578125 -15.0294634 34.31266993 -18.51171875 34.98828125 Z " fill="#292929" transform="translate(285.13671875,81.32421875)"/>
<path d="M0 0 C7.56474837 6.17237533 12.6999242 13.69472668 13.74609375 23.4921875 C14.61534774 33.06978602 13.25844283 42.68086814 7.37109375 50.4921875 C4.7214668 53.55581866 2.17092119 56.29051272 -1.25390625 58.4921875 C-2.08341797 59.04712891 -2.08341797 59.04712891 -2.9296875 59.61328125 C-10.51055445 63.86739882 -19.83898206 63.69922285 -28.25390625 62.4921875 C-36.7946044 60.002325 -43.46013118 54.98246104 -48.25390625 47.4921875 C-53.1821038 37.49578679 -53.7856633 26.99127623 -50.81640625 16.3046875 C-47.23620787 6.80774023 -40.66806155 0.47347194 -31.515625 -3.66796875 C-20.9575135 -7.58851102 -9.36807479 -6.26703097 0 0 Z M-30.62890625 15.9921875 C-34.46144695 21.88840396 -33.6824953 28.70364311 -33.25390625 35.4921875 C-32.41983146 39.21485955 -31.07802753 41.7195738 -28.25390625 44.3671875 C-24.04577137 46.73426337 -19.97217602 46.9667004 -15.25390625 46.4921875 C-10.88044376 45.06240169 -8.08446812 43.09782513 -5.9453125 38.91796875 C-4.07046174 32.34010252 -4.00097001 24.48374876 -6.64453125 18.171875 C-8.5503742 14.99855398 -10.07211063 13.40126487 -13.25390625 11.4921875 C-20.28103239 9.79207634 -25.39655948 10.48445405 -30.62890625 15.9921875 Z " fill="#292929" transform="translate(220.25390625,82.5078125)"/>
<path d="M0 0 C1.90072266 0.02126953 1.90072266 0.02126953 3.83984375 0.04296875 C5.74443359 0.05263672 5.74443359 0.05263672 7.6875 0.0625 C10.77734375 0.23046875 10.77734375 0.23046875 11.77734375 1.23046875 C11.87247319 3.90834848 11.90289654 6.56035744 11.89086914 9.23852539 C11.89101517 10.07747849 11.89116119 10.91643158 11.89131165 11.7808075 C11.89061225 14.56743919 11.8828186 17.35400491 11.875 20.140625 C11.87313592 22.06733666 11.87171197 23.9940488 11.87071228 25.92076111 C11.86688634 31.00234272 11.85705541 36.08389595 11.8460083 41.16546631 C11.83579581 46.34663509 11.83121501 51.52780844 11.82617188 56.70898438 C11.81543321 66.882825 11.79835588 77.05664452 11.77734375 87.23046875 C8.92896254 88.65465935 6.44946467 88.40042383 3.27734375 88.41796875 C2.11203125 88.43214844 0.94671875 88.44632812 -0.25390625 88.4609375 C-3.22265625 88.23046875 -3.22265625 88.23046875 -5.22265625 86.23046875 C-5.42113233 83.56084389 -5.49539444 80.99495583 -5.48144531 78.32421875 C-5.48494995 77.50783936 -5.48845459 76.69145996 -5.49206543 75.8503418 C-5.50088973 73.14363172 -5.49503118 70.43718163 -5.48828125 67.73046875 C-5.4896277 65.8548172 -5.49156806 63.97916598 -5.49407959 62.10351562 C-5.4970318 58.16923709 -5.49273011 54.23504926 -5.48339844 50.30078125 C-5.47200385 45.24972311 -5.47856281 40.19887749 -5.49054337 35.14782715 C-5.49775936 31.27374664 -5.49547524 27.39971678 -5.49028778 23.52563477 C-5.48895056 21.66284154 -5.49060152 19.80004377 -5.49524689 17.93725586 C-5.50030786 15.33695233 -5.49260806 12.7369963 -5.48144531 10.13671875 C-5.48549377 9.36158936 -5.48954224 8.58645996 -5.49371338 7.7878418 C-5.43466165 0.38866065 -5.43466165 0.38866065 0 0 Z " fill="#292929" transform="translate(149.22265625,55.76953125)"/>
</svg>
