<?xml version="1.0" encoding="UTF-8"?>
<svg version="1.1" xmlns="http://www.w3.org/2000/svg" width="400" height="200">
<path d="M0 0 C10.57231938 9.15215708 19.09427876 20.89599452 20.46289062 35.19677734 C21.28701075 52.31123802 18.41558529 65.88254766 7.2109375 79.328125 C-3.500524 90.81577936 -17.27436994 96.48335169 -32.8203125 97.140625 C-48.16589627 96.87964568 -61.29174992 91.1472002 -72.27734375 80.60546875 C-82.09528079 69.85985262 -85.30469995 59.53958163 -85.25878906 45.27441406 C-85.2578205 43.15810258 -85.29944549 41.04547406 -85.34375 38.9296875 C-85.47727917 23.89307058 -80.13488043 13.68742076 -69.88671875 2.92578125 C-50.98289096 -15.03482021 -20.42344998 -15.62133568 0 0 Z M-60.7578125 9.890625 C-61.37140625 10.36886719 -61.985 10.84710938 -62.6171875 11.33984375 C-69.25673179 17.17147889 -74.62848345 27.11766643 -75.7578125 35.890625 C-76.66374625 50.15908162 -73.95932716 60.83637167 -65.01171875 72.0859375 C-57.5275046 80.27033801 -46.97412719 85.26124156 -35.953125 86.10546875 C-23.30925646 86.50762742 -11.87822734 82.27252354 -2.453125 73.74609375 C6.29794572 64.16830898 10.47968316 52.77872294 10.2421875 39.890625 C9.1701277 31.08516299 6.36801917 24.08776461 1.2421875 16.890625 C0.4790625 15.818125 -0.2840625 14.745625 -1.0703125 13.640625 C-9.40723252 5.10982311 -20.81039314 -0.07583694 -32.7578125 -0.421875 C-43.23866308 -0.29474878 -52.65456741 3.33465309 -60.7578125 9.890625 Z " fill="#292929" transform="translate(84.7578125,57.109375)"/>
<path d="M0 0 C8.91221751 9.82535456 7.09375 12.95291002 7.09375 29.1015625 C-6.10625 29.1015625 -19.30625 29.1015625 -32.90625 29.1015625 C-29.90625 37.1015625 -29.90625 37.1015625 -24.90625 39.1015625 C-22.26134392 39.52807598 -22.26134392 39.52807598 -19.46875 39.5390625 C-18.54191406 39.57902344 -17.61507812 39.61898437 -16.66015625 39.66015625 C-13.66595357 39.33141861 -13.66595357 39.33141861 -11.578125 36.59375 C-8.36253484 33.59441298 -6.99276382 33.5659115 -2.77929688 33.66210938 C-1.69745117 33.72495117 -1.69745117 33.72495117 -0.59375 33.7890625 C0.14681641 33.81162109 0.88738281 33.83417969 1.65039062 33.85742188 C3.46572357 33.915981 5.28000681 34.00565364 7.09375 34.1015625 C6.97987246 40.47870498 5.54072343 43.71790894 1.13671875 48.33984375 C-7.12181054 55.46144358 -16.4902161 55.65879888 -26.90625 55.1015625 C-34.52214557 53.98812748 -39.86448735 49.76975658 -44.90625 44.1015625 C-50.68412821 35.29945052 -50.84518 25.32740916 -49.90625 15.1015625 C-49.05282478 11.69249979 -47.78425128 9.05270737 -45.90625 6.1015625 C-45.59042969 5.48152344 -45.27460938 4.86148438 -44.94921875 4.22265625 C-41.12756223 -2.40441105 -33.82745242 -5.36899616 -26.76953125 -7.5625 C-17.42529221 -9.24720557 -6.73555516 -6.70795042 0 0 Z M-28.90625 10.1015625 C-31.49752153 12.87154241 -31.95258432 14.28689979 -32.90625 18.1015625 C-24.65625 18.1015625 -16.40625 18.1015625 -7.90625 18.1015625 C-10.19349478 11.53000338 -10.19349478 11.53000338 -14.90625 8.1015625 C-20.66684741 6.80078244 -23.82880784 6.67724104 -28.90625 10.1015625 Z " fill="#292929" transform="translate(392.90625,85.8984375)"/>
<path d="M0 0 C4.10840121 -0.09249684 8.21410613 -0.17192096 12.32299805 -0.21972656 C13.71667814 -0.23967995 15.1102763 -0.26685319 16.50366211 -0.30175781 C26.36216747 -0.54229544 33.98941055 -0.03025673 41.875 6.3125 C46.91859045 12.69115851 47.42766789 18.2217934 47.29296875 26.08984375 C47.28872391 27.03436905 47.28447906 27.97889435 47.28010559 28.95204163 C47.26340933 31.94749324 47.22577406 34.9422542 47.1875 37.9375 C47.17244146 39.97720378 47.1587551 42.01691817 47.14648438 44.05664062 C47.11353547 49.03802361 47.06181604 54.01889499 47 59 C42.38 59 37.76 59 33 59 C32.505 56.03 32.505 56.03 32 53 C31.360625 53.763125 30.72125 54.52625 30.0625 55.3125 C25.79667356 59.56624194 20.33785475 60.74951556 14.5 61.375 C7.86977041 60.66461826 1.74742092 58.88705095 -3 54 C-7.15306084 48.41484921 -6.75442492 41.65419734 -6 35 C-3.73695014 30.03869839 -0.74530221 27.60526396 4 25 C9.74717448 22.94327005 14.86856361 22.75500582 20.9375 22.875 C21.81212891 22.88402344 22.68675781 22.89304687 23.58789062 22.90234375 C25.72538064 22.9257043 27.86272786 22.96156753 30 23 C28.3672149 19.25332798 28.3672149 19.25332798 26 16 C24.07332493 15.91251793 22.14348139 15.89302666 20.21484375 15.90234375 C19.04501953 15.90556641 17.87519531 15.90878906 16.66992188 15.91210938 C14.82237305 15.92467773 14.82237305 15.92467773 12.9375 15.9375 C11.70193359 15.94201172 10.46636719 15.94652344 9.19335938 15.95117188 C6.12888587 15.96300382 3.06443707 15.98093992 0 16 C0 10.72 0 5.44 0 0 Z M13 36 C11.1989038 38.97572416 10.83357208 40.28435995 11.625 43.6875 C13.22481612 46.37809984 14.12944094 46.88140136 17 48 C20.15422543 48.26655426 22.97611868 47.93768063 26 47 C29.29298448 43.70701552 30.20970245 41.16250428 30.25 36.625 C30.1675 35.42875 30.085 34.2325 30 33 C28.10489301 32.91839252 26.20875496 32.86053541 24.3125 32.8125 C23.25675781 32.77769531 22.20101562 32.74289063 21.11328125 32.70703125 C17.59877863 33.03775609 15.8100121 33.90499098 13 36 Z " fill="#292929" transform="translate(232,80)"/>
<path d="M0 0 C5.56789804 5.92832001 8 10.79250843 8 19 C2.39 19 -3.22 19 -9 19 C-9.99 17.02 -10.98 15.04 -12 13 C-15.34739304 10.36990547 -18.88162305 10.70583022 -23 11 C-26.21182844 11.89217457 -26.85349417 12.75594361 -28.58984375 15.6484375 C-30.15830634 19.37625162 -30.36988294 21.97436591 -30.3125 26 C-30.30669922 27.7634375 -30.30669922 27.7634375 -30.30078125 29.5625 C-29.9958916 33.04695311 -29.38450808 35.79153246 -28 39 C-23.19375354 41.63199211 -19.1656563 41.16643852 -14 40 C-10.53735349 37.42521157 -10.07216444 36.28865775 -9 32 C-3.06 32 2.88 32 9 32 C7.93588515 40.51291881 7.04494123 45.90591611 0.25 51.3125 C-8.50288896 57.18509643 -16.45406828 58.01232045 -27 57 C-35.28085188 54.90833405 -40.73733307 51.25858218 -45.25 44 C-50.43897538 35.22688698 -50.44629826 23.68603026 -48.31640625 13.83984375 C-45.64630459 6.67156252 -41.04555808 0.31255257 -34.09765625 -3.21484375 C-23.32982721 -7.24526021 -9.49449853 -7.22683928 0 0 Z " fill="#292929" transform="translate(333,84)"/>
<path d="M0 0 C20.13 0 40.26 0 61 0 C61 5.28 61 10.56 61 16 C54.07 16 47.14 16 40 16 C40 36.46 40 56.92 40 78 C33.73 78 27.46 78 21 78 C21 57.54 21 37.08 21 16 C14.07 16 7.14 16 0 16 C0 10.72 0 5.44 0 0 Z " fill="#292929" transform="translate(130,61)"/>
<path d="M0 0 C1.87890625 1.26293945 1.87890625 1.26293945 3 3 C2.86713871 11.06301953 0.34569993 18.65120548 -2 26.3125 C-2.34933594 27.57384766 -2.69867188 28.83519531 -3.05859375 30.13476562 C-5.77985258 38.97179473 -5.77985258 38.97179473 -8.8918457 41.59423828 C-11.23639143 42.67543895 -13.50250441 43.34750751 -16 44 C-17.97568167 44.70512149 -19.94819807 45.41915577 -21.91796875 46.140625 C-24.00620749 46.84850254 -26.09608326 47.55156769 -28.1875 48.25 C-29.24130859 48.61351562 -30.29511719 48.97703125 -31.38085938 49.3515625 C-32.40373047 49.69445312 -33.42660156 50.03734375 -34.48046875 50.390625 C-35.39723389 50.70032227 -36.31399902 51.01001953 -37.25854492 51.32910156 C-40.92629279 52.2266856 -44.49332231 52.85378403 -47.875 50.9375 C-50.12404467 47.06414529 -49.16396478 42.68449927 -48.16137695 38.49902344 C-45.99517958 31.7781763 -45.99517958 31.7781763 -45.00219727 28.81933594 C-44.31175828 26.74777457 -43.65241833 24.6679093 -42.99414062 22.5859375 C-42.55654268 21.25980305 -42.11715068 19.93425898 -41.67578125 18.609375 C-41.28302002 17.41280273 -40.89025879 16.21623047 -40.4855957 14.98339844 C-38.25420892 10.50228972 -35.49031959 9.57147054 -30.95727539 7.83325195 C-24.41939849 5.70242004 -24.41939849 5.70242004 -21.98950195 4.9284668 C-20.06800531 4.31425977 -18.15222464 3.68416239 -16.23632812 3.05273438 C-15.01494141 2.66021484 -13.79355469 2.26769531 -12.53515625 1.86328125 C-11.425354 1.50532471 -10.31555176 1.14736816 -9.17211914 0.77856445 C-5.91358397 -0.02120994 -3.33624101 -0.36489678 0 0 Z M-27.875 21.125 C-29.52854531 23.88090884 -29.39365568 25.85075452 -29 29 C-28 31 -28 31 -26 32 C-22.85075452 32.39365568 -20.88090884 32.52854531 -18.125 30.875 C-16.47145469 28.11909116 -16.60634432 26.14924548 -17 23 C-18 21 -18 21 -20 20 C-23.14924548 19.60634432 -25.11909116 19.47145469 -27.875 21.125 Z " fill="#292929" transform="translate(76,74)"/>
<path d="M0 0 C4.95 0 9.9 0 15 0 C15.33 3.3 15.66 6.6 16 10 C16.495 9.0925 16.99 8.185 17.5 7.25 C20.16625689 3.30206875 23.47708596 1.37345034 28 0 C31.09088265 -0.2971081 33.88335527 -0.1947903 37 0 C37 4.95 37 9.9 37 15 C35.288125 15.2475 33.57625 15.495 31.8125 15.75 C27.21593501 16.6007781 24.15165842 17.34000958 21 21 C19.11319637 25.59377379 18.7045769 29.64262908 18.5859375 34.5859375 C18.56657135 35.28772125 18.5472052 35.989505 18.5272522 36.71255493 C18.46792431 38.93324999 18.42126083 41.15399823 18.375 43.375 C18.33677698 44.88934434 18.29772278 46.40366794 18.2578125 47.91796875 C18.16071116 51.61186543 18.08077587 55.30556666 18 59 C12.06 59 6.12 59 0 59 C0 39.53 0 20.06 0 0 Z " fill="#292929" transform="translate(191,80)"/>
</svg>
