<?xml version="1.0" encoding="UTF-8"?>
<svg version="1.1" xmlns="http://www.w3.org/2000/svg" width="400" height="200">
<path d="M0 0 C7.16741761 4.90331747 12.91042707 12.06566842 14.77734375 20.6796875 C14.77734375 22.6596875 14.77734375 24.6396875 14.77734375 26.6796875 C9.16734375 26.6796875 3.55734375 26.6796875 -2.22265625 26.6796875 C-2.61453125 25.4628125 -3.00640625 24.2459375 -3.41015625 22.9921875 C-5.29349903 18.10240761 -7.48001334 14.95429732 -12.3828125 12.67578125 C-19.40382423 10.19450452 -26.60931929 9.67052903 -33.5546875 12.6953125 C-39.46434922 16.15997503 -43.42166102 20.53023731 -45.6796875 27.1171875 C-47.67247725 36.52200817 -47.16554031 46.31730004 -42.22265625 54.6796875 C-38.7707941 59.09040024 -34.59156673 62.08189974 -29.22265625 63.6796875 C-20.24723289 64.67818948 -14.17375406 63.67337455 -6.53515625 59.0546875 C-3.22888504 55.65905761 -1.96792848 52.07518793 -0.22265625 47.6796875 C5.38734375 47.6796875 10.99734375 47.6796875 16.77734375 47.6796875 C14.89837288 58.95351273 11.72985586 66.26688048 2.77734375 73.6796875 C-7.33649509 80.76296116 -18.10302497 81.66202843 -30.22265625 80.6796875 C-38.39831321 79.10710212 -45.15786577 76.43655264 -51.22265625 70.6796875 C-51.83753906 70.10476562 -52.45242187 69.52984375 -53.0859375 68.9375 C-62.24356296 59.48573239 -64.52655303 47.79648586 -64.53735352 35.17431641 C-64.33083882 22.27753504 -60.46814166 13.14270481 -51.53125 3.9375 C-38.21462507 -8.48311073 -15.17476513 -9.01418385 0 0 Z " fill="#292929" transform="translate(163.22265625,62.3203125)"/>
<path d="M0 0 C5.61 0 11.22 0 17 0 C17.33 9.24 17.66 18.48 18 28 C20.31 26.02 22.62 24.04 25 22 C30.87601309 20.04132897 38.39551453 19.89092755 44.3359375 21.71875 C50.26868285 24.93124093 53.10812233 29.65744398 55.38671875 35.7421875 C57.04663442 41.85321463 57.13731289 47.93783552 57.09765625 54.21484375 C57.0962413 55.07058487 57.09482635 55.92632599 57.09336853 56.80799866 C57.0878099 59.51786931 57.07526525 62.22765468 57.0625 64.9375 C57.05747965 66.78450401 57.05291768 68.63150932 57.04882812 70.47851562 C57.03870864 74.98573568 57.01912543 79.49277335 57 84 C51.39 84 45.78 84 40 84 C39.9906543 82.78417236 39.98130859 81.56834473 39.97167969 80.31567383 C39.93174582 75.79593545 39.86597746 71.27687532 39.79248047 66.75756836 C39.76429056 64.80323004 39.74306617 62.84877814 39.72900391 60.89428711 C39.70754693 58.08127777 39.66088305 55.26963129 39.609375 52.45703125 C39.60814636 51.58601273 39.60691772 50.7149942 39.60565186 49.81758118 C39.5066725 45.6991453 39.33355673 43.52804636 37.08691406 39.97143555 C33.81369394 36.87933769 31.5286599 36.71600857 27.03515625 36.78125 C24.06225243 37.10079436 22.29001841 38.11410248 20 40 C18.32755374 42.78244206 17.74246446 44.89687165 17.68115234 48.12597656 C17.66128265 48.92650452 17.64141296 49.72703247 17.62094116 50.55181885 C17.60361435 51.83327789 17.60361435 51.83327789 17.5859375 53.140625 C17.56657135 54.02280701 17.5472052 54.90498901 17.5272522 55.81390381 C17.46757152 58.62583816 17.42111717 61.4378137 17.375 64.25 C17.33680962 66.15887181 17.29775727 68.06772659 17.2578125 69.9765625 C17.16187942 74.65090296 17.07780584 79.32532409 17 84 C11.39 84 5.78 84 0 84 C0 56.28 0 28.56 0 0 Z " fill="#292929" transform="translate(185,57)"/>
<path d="M0 0 C1.20785156 -0.020625 2.41570312 -0.04125 3.66015625 -0.0625 C11.95643094 -0.09861001 20.35169689 0.22314451 26.875 6 C27.40867187 6.44859375 27.94234375 6.8971875 28.4921875 7.359375 C33.35224406 13.45333192 33.41226783 19.52199653 33.29296875 26.99609375 C33.28872391 28.00720718 33.28447906 29.01832062 33.28010559 30.06007385 C33.26339754 33.26949401 33.22575953 36.47827165 33.1875 39.6875 C33.17244301 41.87173568 33.15875638 44.05598127 33.14648438 46.24023438 C33.11351973 51.5770681 33.06179158 56.91342535 33 62.25 C28.71 62.25 24.42 62.25 20 62.25 C19.505 59.28 19.505 59.28 19 56.25 C18.52949219 56.67152344 18.05898438 57.09304687 17.57421875 57.52734375 C16.95160156 58.07519531 16.32898438 58.62304688 15.6875 59.1875 C15.07261719 59.73277344 14.45773437 60.27804688 13.82421875 60.83984375 C8.41693556 65.01977787 -0.50299705 63.70996481 -7 63.25 C-12.36456311 61.81737357 -16.02170964 58.9465348 -19 54.25 C-21.9177299 47.99320737 -22.05195593 41.4058678 -19.875 34.875 C-15.35257245 28.54360143 -10.38072452 26.07680706 -3 24.25 C0.52061662 23.80084747 4.01641315 23.65355872 7.5625 23.5625 C8.47580078 23.52833984 9.38910156 23.49417969 10.33007812 23.45898438 C12.55326229 23.37750642 14.77610197 23.30804262 17 23.25 C15.47444034 18.43877153 15.47444034 18.43877153 12 15.25 C10.0406396 15.16489795 8.07837206 15.14282344 6.1171875 15.15234375 C4.36728516 15.15717773 4.36728516 15.15717773 2.58203125 15.16210938 C1.35871094 15.17048828 0.13539063 15.17886719 -1.125 15.1875 C-2.35605469 15.19201172 -3.58710938 15.19652344 -4.85546875 15.20117188 C-7.90369392 15.2129867 -10.95182314 15.22945972 -14 15.25 C-14.02685412 12.93756208 -14.04632841 10.6250373 -14.0625 8.3125 C-14.07410156 7.02472656 -14.08570313 5.73695312 -14.09765625 4.41015625 C-13.88261017 -2.54873493 -5.4770346 0.02279723 0 0 Z M-3 37.25 C-5.33984442 40.12648225 -5.33984442 40.12648225 -4.875 43.6875 C-3.88916676 47.70124962 -3.52687686 49.09946533 0 51.25 C4.52656019 51.92286706 8.57868758 51.70361035 12.9375 50.3125 C16.64452225 46.60547775 17.93664738 41.63072481 18.07421875 36.4609375 C18.04972656 35.73132813 18.02523437 35.00171875 18 34.25 C15.43685501 34.16867813 12.87631582 34.10935825 10.3125 34.0625 C9.2306543 34.02479492 9.2306543 34.02479492 8.12695312 33.98632812 C3.52792109 33.92332769 0.62565193 34.36427704 -3 37.25 Z " fill="#292929" transform="translate(268,78.75)"/>
<path d="M0 0 C7.37447698 4.76268305 10.17359903 10.49764369 12 18.9375 C12.35094708 22.41085677 12.35372477 25.83218568 12.29296875 29.3203125 C12.28872391 30.26059296 12.28447906 31.20087341 12.28010559 32.16964722 C12.26348872 35.13423921 12.22586997 38.09811806 12.1875 41.0625 C12.17243115 43.08853176 12.15874662 45.11457431 12.14648438 47.140625 C12.11364116 52.07318594 12.06197926 57.00522263 12 61.9375 C6.72 61.9375 1.44 61.9375 -4 61.9375 C-4.01458252 60.8230249 -4.02916504 59.7085498 -4.04418945 58.56030273 C-4.1024208 54.4021084 -4.17965114 50.24444159 -4.26245117 46.08666992 C-4.29558413 44.29151 -4.32365187 42.49624883 -4.34643555 40.70092773 C-4.38019664 38.11137988 -4.43252125 35.52275029 -4.48828125 32.93359375 C-4.49467117 32.13851913 -4.5010611 31.34344452 -4.50764465 30.52427673 C-4.64354511 25.30457203 -5.50369703 21.55571572 -8 16.9375 C-11.10986207 14.86425862 -11.89108387 14.66357814 -15.4375 14.6875 C-16.19933594 14.68234375 -16.96117187 14.6771875 -17.74609375 14.671875 C-20.39362814 14.98388945 -21.82060104 15.38014715 -24 16.9375 C-27.20316437 22.01426913 -27.46654676 26.24298472 -27.51171875 32.0546875 C-27.52966995 32.91184357 -27.54762115 33.76899963 -27.56611633 34.65213013 C-27.62001405 37.37220436 -27.65404858 40.0921052 -27.6875 42.8125 C-27.72069126 44.66408652 -27.75518259 46.51565022 -27.79101562 48.3671875 C-27.87572852 52.89049948 -27.9426372 57.41376186 -28 61.9375 C-33.28 61.9375 -38.56 61.9375 -44 61.9375 C-44 41.4775 -44 21.0175 -44 -0.0625 C-39.71 -0.0625 -35.42 -0.0625 -31 -0.0625 C-30.67 2.9075 -30.34 5.8775 -30 8.9375 C-29.505 8.03 -29.01 7.1225 -28.5 6.1875 C-22.40530668 -2.68132958 -9.55928362 -3.40642623 0 0 Z " fill="#292929" transform="translate(386,79.0625)"/>
<path d="M0 0 C3.40938836 3.04668747 4.82105742 4.90646202 5.5625 9.4375 C4.86670229 13.84421884 3.32058018 16.20268698 1 20 C-0.3740203 23.66405413 -0.07288538 24.80216825 1.3125 28.5625 C2.83338807 31.79583118 2.83338807 31.79583118 4.1875 33.9375 C5.50128687 37.27249743 5.55560714 40.50947987 5 44 C3.86637382 46.4929517 2.45441132 48.66412727 1 51 C-0.02940903 54.12425639 -0.17377862 55.53795331 0.99609375 58.6484375 C1.47175781 59.54820313 1.94742188 60.44796875 2.4375 61.375 C4.5985008 65.91491765 5.90969811 68.90569057 5 74 C4.15204369 75.82530856 3.27409865 77.63683266 2.375 79.4375 C0.61055932 83.07105157 -0.4505277 85.38429242 0.5 89.375 C1.8431991 92.91511176 1.8431991 92.91511176 3.625 95.5625 C5.54211763 98.96102671 5.54861638 101.15968535 5 105 C2.8272578 107.63016161 1.05326212 109.47336894 -2 111 C-6.18144011 111.39447548 -8.30946048 111.45035186 -11.875 109.125 C-14.75169885 106.24830115 -14.96092173 105.46112354 -15.3125 101.3125 C-15.29496462 98.06845525 -14.76381972 96.21117165 -13 93.5 C-10.5793109 89.69605999 -10.08435656 86.42854471 -11 82 C-12.00743328 80.26847405 -13.01649962 78.53663095 -14.09375 76.84765625 C-15.81571944 73.33691682 -15.70201263 69.78681811 -15 66 C-14.09375 64.15234375 -14.09375 64.15234375 -13 62.4375 C-10.63247588 58.36831792 -10.05111246 55.59845499 -11 51 C-11.88139031 49.19713831 -11.88139031 49.19713831 -13 47.5 C-15.36288304 43.77845921 -15.86121677 40.32264572 -15 36 C-14.07103232 33.90982272 -13.00170116 31.94061676 -11.90625 29.93359375 C-10.42348875 26.76994368 -10.51071618 24.42498673 -11 21 C-11.62474333 19.66703471 -12.29472522 18.35466415 -13 17.0625 C-15.35033548 12.71564298 -15.72632691 9.9228824 -15 5 C-10.55497029 -0.64638909 -6.93597341 -1.79378623 0 0 Z " fill="#292929" transform="translate(65,45)"/>
<path d="M0 0 C2.8100346 1.79363911 4.50940468 3.01880935 6 6 C6.39218535 10.62778709 6.55939153 13.56595295 4 17.5 C1.57870791 21.30488757 1.08601525 24.57068927 2 29 C2.88139031 30.80286169 2.88139031 30.80286169 4 32.5 C6.36243967 36.22084248 6.86276709 39.67786869 6 44 C5.06682799 46.06343637 3.99413341 48.01070652 2.90625 49.99609375 C1.28486098 53.58132033 1.5026279 56.08319473 2 60 C2.92729157 61.81861063 3.99370083 63.49011097 5.08984375 65.2109375 C6.8443083 68.65962748 6.55401266 71.18346838 6 75 C3.57468391 78.35264284 1.94700576 79.7040607 -2 80.9375 C-6.65707876 81.03452247 -8.93827042 80.00433879 -12.3125 76.8125 C-14.5020179 73.1633035 -14.57992907 71.20448579 -14 67 C-12.83067674 64.54599424 -11.4218468 62.3266584 -10 60 C-8.6259797 56.33594587 -8.92711462 55.19783175 -10.3125 51.4375 C-11.83338807 48.20416882 -11.83338807 48.20416882 -13.1875 46.0625 C-14.50128687 42.72750257 -14.55560714 39.49052013 -14 36 C-12.86637382 33.5070483 -11.45441132 31.33587273 -10 29 C-8.97059097 25.87574361 -8.82622138 24.46204669 -9.99609375 21.3515625 C-10.70958984 20.00191406 -10.70958984 20.00191406 -11.4375 18.625 C-13.57410368 14.18468396 -14.90100883 11.00560458 -14 6 C-10.26747896 0.27680107 -6.74763808 -0.96948823 0 0 Z " fill="#292929" transform="translate(40,60)"/>
<path d="M0 0 C5.61 0 11.22 0 17 0 C17 20.46 17 40.92 17 62 C11.39 62 5.78 62 0 62 C0 41.54 0 21.08 0 0 Z " fill="#292929" transform="translate(314,79)"/>
<path d="M0 0 C3.13664276 2.09109518 3.85064107 3.56070904 5.0625 7.125 C4.98580125 11.88032237 3.38298131 14.476249 1.16796875 18.58984375 C-0.50483736 22.04175469 -0.6861912 24.22594841 0 28 C0.81414347 29.52209431 1.67220267 31.02115878 2.5625 32.5 C4.51986535 35.76412914 4.99763347 36.85564149 5.0625 40.8125 C3.68669322 44.93992035 1.88044947 47.05977526 -2 49 C-6.41713859 49.36206054 -8.94898583 49.51432609 -12.9375 47.5625 C-15.42641154 44.47021597 -16.01858006 42.41555538 -16.2890625 38.5 C-15.84132163 34.62764651 -13.96629183 31.71536438 -12.09765625 28.34765625 C-10.45458324 24.83346807 -10.83182654 22.64195254 -12 19 C-12.66187748 17.79803049 -13.35051463 16.61048309 -14.0625 15.4375 C-16.15052915 11.73293215 -16.79455075 10.14932058 -16 6 C-11.94493757 -0.62430045 -7.39982458 -1.89471315 0 0 Z " fill="#292929" transform="translate(18,76)"/>
</svg>
